# xmcd CD database file
#
# Track frame offsets:
#	150
#	3773
#	21262
#	37700
#	56168
#	75773
#	94968
#	110897
#	135372
#	150736
#	169015
#	181466
#	196786
#	215128
#	235056
#	254223
#	275440
#	306611
#
# Disc length: 4092 seconds
#
# Revision: 0
# Processed by: cddbd v1.5.2PL0 Copyright (c) Steve Scherf et al.
# Submitted via: CDex 1.70beta2
#
DISCID=f40ffa12
DTITLE=BIG TRAY DEEE - general´s list
DYEAR=2002
DGENRE=West Coast
TTITLE0=intro - MAC MINISTER
TTITLE1=i can make you dance ft. BIG ROCC
TTITLE2=fine - SNOOP DOGG
TTITLE3=questionz - ICEBERGH
TTITLE4=izuwitit
TTITLE5=LA - KF-KLIK
TTITLE6=finer thangzzz - 40 GLOCC and L.V.
TTITLE7=thugz pray II - THE OUTLAWZ
TTITLE8=hard timez on planet earth ft. BAD AZZ
TTITLE9=big ballin
TTITLE10=shynnin - BORETTA ft. ASIAH
TTITLE11=enjoy yourself - BAM
TTITLE12=blazin endo ft. BAM
TTITLE13=clap yo handz - IV LIFE FAMILY ft. KOKANE
TTITLE14=fuck a suit ft. GOLDIE LOC
TTITLE15=tearing shit up - MONEY GREEN ft. MANISH FLATS
TTITLE16=street sweepin ft. BAM and BIG ROCC
TTITLE17=ERROR
EXTD=YEAR: 2002
EXTT0=
EXTT1=
EXTT2=
EXTT3=
EXTT4=
EXTT5=
EXTT6=
EXTT7=
EXTT8=
EXTT9=
EXTT10=
EXTT11=
EXTT12=
EXTT13=
EXTT14=
EXTT15=
EXTT16=
EXTT17=
PLAYORDER=
